# Blender v3.6.0 OBJ File: 'kiryu.blend'
# www.blender.org
o 25_necksm166_1_0_0
v 0.010431 -0.029983 1.644690
v 0.000419 -0.033791 1.642020
v 0.000500 -0.029592 1.635180
v 0.016049 -0.020513 1.638700
v 0.018049 -0.023836 1.648280
v 0.026824 -0.016225 1.652280
v 0.031580 -0.007414 1.643850
v 0.034609 -0.009818 1.654730
v 0.045949 -0.000673 1.659820
v 0.000520 -0.028361 1.626480
v 0.014598 -0.018800 1.627890
v 0.028652 -0.008119 1.631510
v 0.050310 0.004740 1.651660
v 0.052825 0.007563 1.664940
v 0.056551 0.017661 1.667770
v 0.013827 -0.017521 1.605680
v 0.028539 -0.010283 1.609020
v 0.046330 0.002053 1.637870
v 0.055759 0.015547 1.655870
v 0.058171 0.035330 1.671530
v 0.058579 0.037633 1.683060
v 0.051371 0.056147 1.685210
v 0.000386 -0.022641 1.602890
v 0.039930 -0.001663 1.612030
v 0.047933 0.008035 1.613160
v 0.052951 0.012369 1.640770
v 0.057753 0.033045 1.659970
v 0.053001 0.054403 1.673400
v 0.038670 0.074866 1.685510
v 0.041842 0.075406 1.673520
v 0.017585 0.085570 1.684540
v 0.057329 0.028657 1.643960
v 0.054624 0.052531 1.661740
v 0.044936 0.075898 1.661760
v 0.018849 0.087696 1.672260
v 0.000211 0.089502 1.684100
v 0.000210 0.091918 1.671660
v 0.060022 0.022068 1.616410
v 0.068738 0.030554 1.618740
v 0.059478 0.048289 1.646900
v 0.060375 0.065779 1.649890
v 0.054872 0.077565 1.650030
v 0.041637 0.089967 1.648600
v 0.020061 0.089787 1.660150
v 0.000176 0.094301 1.659360
v 0.077209 0.041873 1.624970
v 0.083826 0.060085 1.631680
v 0.082511 0.078219 1.633800
v 0.072843 0.097103 1.629800
v 0.044151 0.109948 1.626100
v 0.027374 0.095671 1.646330
v 0.013749 0.098981 1.645810
v 0.000080 0.100525 1.645800
v 0.016655 0.114644 1.623950
v -0.000000 0.114828 1.623640
v -0.000419 -0.033791 1.642020
v -0.010431 -0.029983 1.644690
v -0.000500 -0.029592 1.635180
v -0.016049 -0.020513 1.638700
v -0.000520 -0.028361 1.626480
v -0.014598 -0.018800 1.627890
v -0.013827 -0.017521 1.605680
v -0.000386 -0.022641 1.602890
v -0.018049 -0.023836 1.648280
v -0.026824 -0.016225 1.652280
v -0.031580 -0.007414 1.643850
v -0.028652 -0.008119 1.631510
v -0.028539 -0.010283 1.609020
v -0.046330 0.002053 1.637870
v -0.039930 -0.001663 1.612030
v -0.047933 0.008035 1.613160
v -0.034609 -0.009818 1.654730
v -0.045949 -0.000673 1.659820
v -0.050310 0.004740 1.651660
v -0.055759 0.015547 1.655870
v -0.052951 0.012369 1.640770
v -0.057329 0.028657 1.643960
v -0.060022 0.022068 1.616410
v -0.068738 0.030554 1.618740
v -0.052825 0.007563 1.664940
v -0.056551 0.017661 1.667770
v -0.058171 0.035330 1.671530
v -0.057753 0.033045 1.659970
v -0.054624 0.052531 1.661740
v -0.059478 0.048289 1.646900
v -0.077209 0.041873 1.624970
v -0.060375 0.065779 1.649890
v -0.083826 0.060085 1.631680
v -0.058579 0.037633 1.683060
v -0.051371 0.056147 1.685210
v -0.053001 0.054403 1.673400
v -0.041842 0.075406 1.673520
v -0.044936 0.075898 1.661760
v -0.038670 0.074866 1.685510
v -0.017585 0.085570 1.684540
v -0.018849 0.087696 1.672260
v -0.020061 0.089787 1.660150
v -0.041637 0.089967 1.648600
v -0.054872 0.077565 1.650030
v -0.082511 0.078219 1.633800
v -0.000211 0.089502 1.684100
v -0.000210 0.091918 1.671660
v -0.000176 0.094301 1.659360
v -0.013749 0.098981 1.645810
v -0.027374 0.095671 1.646330
v -0.044151 0.109948 1.626100
v -0.072843 0.097103 1.629800
v -0.000080 0.100525 1.645800
v -0.016655 0.114644 1.623950
vt 0.014984 1.730713
vt 0.038727 1.984375
vt 0.015121 1.984375
vt 0.089478 1.730957
vt 0.089172 1.984375
vt 0.148071 1.984375
vt 0.198242 1.731689
vt 0.208130 1.984375
vt 0.296387 1.984375
vt 0.014984 1.456055
vt 0.073059 1.457519
vt 0.177368 1.463867
vt 0.334473 1.734619
vt 0.361084 1.984375
vt 0.427002 1.984375
vt 0.071472 1.015625
vt 0.162720 1.015625
vt 0.302734 1.480469
vt 0.398193 1.735596
vt 0.506348 1.859497
vt 0.524902 1.984375
vt 0.626953 1.984375
vt 0.015121 1.015625
vt 0.260254 1.015625
vt 0.338623 1.015625
vt 0.368408 1.487305
vt 0.488037 1.736816
vt 0.608887 1.863525
vt 0.767090 1.984375
vt 0.751465 1.859985
vt 0.921387 1.984375
vt 0.461182 1.497070
vt 0.589844 1.736328
vt 0.735840 1.734131
vt 0.902344 1.857788
vt 0.984375 1.984375
vt 0.983887 1.856689
vt 0.415039 1.015625
vt 0.466065 1.015625
vt 0.562988 1.499023
vt 0.644531 1.495117
vt 0.702148 1.488281
vt 0.783203 1.473633
vt 0.883301 1.732422
vt 0.983887 1.731689
vt 0.520996 1.015625
vt 0.587402 1.015625
vt 0.652832 1.015625
vt 0.710938 1.015625
vt 0.814453 1.015625
vt 0.854492 1.463379
vt 0.919434 1.458496
vt 0.983887 1.457031
vt 0.917969 1.015625
vt 0.984375 1.015625
vt 0.014984 1.730713
vt 0.015121 1.984375
vt 0.038727 1.984375
vt 0.089478 1.730957
vt 0.014984 1.456055
vt 0.073059 1.457519
vt 0.071472 1.015625
vt 0.015121 1.015625
vt 0.089172 1.984375
vt 0.148071 1.984375
vt 0.198242 1.731689
vt 0.177368 1.463867
vt 0.162720 1.015625
vt 0.302734 1.480469
vt 0.260254 1.015625
vt 0.338623 1.015625
vt 0.208130 1.984375
vt 0.296387 1.984375
vt 0.334473 1.734619
vt 0.398193 1.735596
vt 0.368408 1.487305
vt 0.461182 1.497070
vt 0.415039 1.015625
vt 0.466065 1.015625
vt 0.361084 1.984375
vt 0.427002 1.984375
vt 0.506348 1.859497
vt 0.488037 1.736816
vt 0.589844 1.736328
vt 0.562988 1.499023
vt 0.520996 1.015625
vt 0.644531 1.495117
vt 0.587402 1.015625
vt 0.524902 1.984375
vt 0.626953 1.984375
vt 0.608887 1.863525
vt 0.751465 1.859985
vt 0.735840 1.734131
vt 0.767090 1.984375
vt 0.921387 1.984375
vt 0.902344 1.857788
vt 0.883301 1.732422
vt 0.783203 1.473633
vt 0.702148 1.488281
vt 0.652832 1.015625
vt 0.984375 1.984375
vt 0.983887 1.856689
vt 0.983887 1.731689
vt 0.919434 1.458496
vt 0.854492 1.463379
vt 0.814453 1.015625
vt 0.710938 1.015625
vt 0.983887 1.457031
vt 0.917969 1.015625
vn 0.4204 -0.7757 -0.4707
vn 0.5091 -0.6551 -0.5583
vn 0.6827 -0.6344 -0.3626
vn 0.6996 -0.6172 -0.3601
vn 0.6706 -0.6689 -0.3208
vn 0.6595 -0.6742 -0.3325
vn 0.6779 -0.6552 -0.3334
vn 0.5206 -0.8456 -0.1185
vn 0.5640 -0.8006 -0.2025
vn 0.6185 -0.7791 -0.1023
vn 0.5678 -0.8185 -0.0880
vn 0.7708 -0.6370 -0.0105
vn 0.9421 -0.3165 -0.1111
vn 0.5652 -0.8223 -0.0670
vn 0.4243 -0.9015 0.0846
vn 0.4747 -0.8763 0.0819
vn 0.9046 -0.3833 -0.1865
vn 0.9954 -0.0802 -0.0520
vn 0.9960 -0.0876 -0.0177
vn 0.9223 0.3715 -0.1068
vn 0.3867 -0.8957 -0.2194
vn 0.6093 -0.7921 -0.0370
vn 0.7730 -0.6262 -0.1015
vn 0.8485 -0.5243 -0.0719
vn 0.9832 -0.0727 -0.1675
vn 0.9592 0.2687 -0.0879
vn 0.8273 0.5609 0.0314
vn 0.8563 0.4536 0.2470
vn 0.4414 0.8836 0.1565
vn 0.9629 -0.2317 -0.1386
vn 0.9838 0.1644 -0.0710
vn 0.8943 0.3706 0.2508
vn 0.4588 0.8745 0.1573
vn 0.2123 0.9590 0.1879
vn 0.2114 0.9595 0.1863
vn 0.7107 -0.6653 0.2286
vn 0.6446 -0.7269 0.2369
vn 0.9040 -0.1584 0.3970
vn 0.9358 -0.1055 0.3363
vn 0.7002 0.3193 0.6386
vn 0.5396 0.6392 0.5480
vn 0.3401 0.6838 0.6456
vn 0.2105 0.9599 0.1854
vn 0.4700 -0.6690 0.5758
vn 0.4765 -0.4511 0.7547
vn 0.6051 -0.0490 0.7946
vn 0.4100 0.3851 0.8268
vn 0.2344 0.7137 0.6601
vn 0.1840 0.7246 0.6641
vn 0.1919 0.8624 0.4685
vn 0.1017 0.9044 0.4144
vn 0.0901 0.8039 0.5879
vn -0.0001 0.8402 0.5423
vn -0.4204 -0.7757 -0.4707
vn -0.5091 -0.6551 -0.5583
vn -0.5206 -0.8456 -0.1185
vn -0.5640 -0.8005 -0.2025
vn -0.5652 -0.8223 -0.0670
vn -0.3867 -0.8957 -0.2194
vn -0.6827 -0.6344 -0.3626
vn -0.6996 -0.6172 -0.3601
vn -0.6706 -0.6689 -0.3208
vn -0.6185 -0.7791 -0.1023
vn -0.4243 -0.9015 0.0846
vn -0.4747 -0.8763 0.0820
vn -0.6093 -0.7921 -0.0370
vn -0.7730 -0.6262 -0.1015
vn -0.6595 -0.6742 -0.3325
vn -0.6779 -0.6552 -0.3334
vn -0.5910 -0.7810 -0.2021
vn -0.9046 -0.3834 -0.1865
vn -0.8465 -0.5304 -0.0458
vn -0.9629 -0.2317 -0.1386
vn -0.7107 -0.6653 0.2286
vn -0.6446 -0.7269 0.2369
vn -0.7708 -0.6370 -0.0105
vn -0.9421 -0.3165 -0.1111
vn -0.9954 -0.0802 -0.0520
vn -0.9938 -0.1099 -0.0143
vn -0.9838 0.1644 -0.0710
vn -0.9255 -0.1532 0.3465
vn -0.4700 -0.6690 0.5758
vn -0.7471 -0.1491 0.6478
vn -0.4765 -0.4511 0.7547
vn -0.9960 -0.0876 -0.0177
vn -0.9223 0.3715 -0.1068
vn -0.9631 0.2516 0.0958
vn -0.8822 0.4684 0.0475
vn -0.8943 0.3705 0.2508
vn -0.8273 0.5609 0.0314
vn -0.4414 0.8836 0.1565
vn -0.4535 0.8688 0.1986
vn -0.4684 0.8616 0.1958
vn -0.3401 0.6837 0.6456
vn -0.5396 0.6392 0.5480
vn -0.4903 0.2188 0.8437
vn -0.2123 0.9590 0.1879
vn -0.2114 0.9595 0.1863
vn -0.2105 0.9599 0.1854
vn -0.1767 0.8621 0.4750
vn -0.1919 0.8624 0.4685
vn -0.1840 0.7246 0.6642
vn -0.2344 0.7137 0.6601
vn -0.1017 0.9044 0.4144
vn -0.0901 0.8039 0.5879
vn 0.0001 0.8402 0.5423
s 1
f 3/1/1 1/2/1 2/3/1
f 4/4/2 1/2/1 3/1/1
f 1/2/1 4/4/2 5/5/3
f 6/6/4 5/5/3 4/4/2
f 6/6/4 4/4/2 7/7/5
f 6/6/4 7/7/5 8/8/6
f 7/7/5 9/9/7 8/8/6
f 10/10/8 4/4/2 3/1/1
f 10/10/8 11/11/9 4/4/2
f 11/11/9 7/7/5 4/4/2
f 7/7/5 11/11/9 12/12/10
f 12/12/10 13/13/11 7/7/5
f 9/9/7 7/7/5 13/13/11
f 9/9/7 13/13/11 14/14/12
f 13/13/11 15/15/13 14/14/12
f 10/10/8 16/16/14 11/11/9
f 16/16/14 12/12/10 11/11/9
f 12/12/10 16/16/14 17/17/15
f 17/17/15 18/18/16 12/12/10
f 13/13/11 12/12/10 18/18/16
f 18/18/16 19/19/17 13/13/11
f 15/15/13 13/13/11 19/19/17
f 20/20/18 15/15/13 19/19/17
f 15/15/13 20/20/18 21/21/19
f 20/20/18 22/22/20 21/21/19
f 16/16/14 10/10/8 23/23/21
f 18/18/16 17/17/15 24/24/22
f 25/25/23 18/18/16 24/24/22
f 18/18/16 25/25/23 26/26/24
f 18/18/16 26/26/24 19/19/17
f 26/26/24 27/27/25 19/19/17
f 20/20/18 19/19/17 27/27/25
f 28/28/26 20/20/18 27/27/25
f 20/20/18 28/28/26 22/22/20
f 28/28/26 29/29/27 22/22/20
f 29/29/27 28/28/26 30/30/28
f 30/30/28 31/31/29 29/29/27
f 32/32/30 26/26/24 25/25/23
f 26/26/24 32/32/30 27/27/25
f 32/32/30 33/33/31 27/27/25
f 28/28/26 27/27/25 33/33/31
f 30/30/28 28/28/26 33/33/31
f 30/30/28 33/33/31 34/34/32
f 35/35/33 30/30/28 34/34/32
f 31/31/29 30/30/28 35/35/33
f 35/35/33 36/36/34 31/31/29
f 35/35/33 37/37/35 36/36/34
f 32/32/30 25/25/23 38/38/36
f 38/38/36 39/39/37 32/32/30
f 39/39/37 40/40/38 32/32/30
f 33/33/31 32/32/30 40/40/38
f 41/41/39 33/33/31 40/40/38
f 41/41/39 34/34/32 33/33/31
f 41/41/39 42/42/40 34/34/32
f 43/43/41 34/34/32 42/42/40
f 43/43/41 44/44/42 34/34/32
f 35/35/33 34/34/32 44/44/42
f 44/44/42 37/37/35 35/35/33
f 37/37/35 44/44/42 45/45/43
f 40/40/38 39/39/37 46/46/44
f 40/40/38 46/46/44 41/41/39
f 41/41/39 46/46/44 47/47/45
f 48/48/46 41/41/39 47/47/45
f 41/41/39 48/48/46 42/42/40
f 48/48/46 43/43/41 42/42/40
f 48/48/46 49/49/47 43/43/41
f 49/49/47 50/50/48 43/43/41
f 51/51/49 43/43/41 50/50/48
f 43/43/41 51/51/49 44/44/42
f 51/51/49 52/52/50 44/44/42
f 52/52/50 45/45/43 44/44/42
f 52/52/50 53/53/51 45/45/43
f 53/53/51 52/52/50 54/54/52
f 53/53/51 54/54/52 55/55/53
f 54/54/52 51/51/49 50/50/48
f 51/51/49 54/54/52 52/52/50
f 58/56/54 56/57/54 57/58/54
f 59/59/55 58/56/54 57/58/54
f 60/60/56 58/56/54 59/59/55
f 60/60/56 59/59/55 61/61/57
f 60/60/56 61/61/57 62/62/58
f 60/60/56 62/62/58 63/63/59
f 57/58/54 64/64/60 59/59/55
f 65/65/61 59/59/55 64/64/60
f 65/65/61 66/66/62 59/59/55
f 61/61/57 59/59/55 66/66/62
f 66/66/62 67/67/63 61/61/57
f 62/62/58 61/61/57 67/67/63
f 67/67/63 68/68/64 62/62/58
f 68/68/64 67/67/63 69/69/65
f 69/69/65 70/70/66 68/68/64
f 71/71/67 70/70/66 69/69/65
f 65/65/61 72/72/68 66/66/62
f 66/66/62 72/72/68 73/73/69
f 73/73/69 74/74/70 66/66/62
f 67/67/63 66/66/62 74/74/70
f 74/74/70 69/69/65 67/67/63
f 69/69/65 74/74/70 75/75/71
f 69/69/65 75/75/71 76/76/72
f 69/69/65 76/76/72 71/71/67
f 77/77/73 71/71/67 76/76/72
f 77/77/73 78/78/74 71/71/67
f 78/78/74 77/77/73 79/79/75
f 73/73/69 80/80/76 74/74/70
f 74/74/70 80/80/76 81/81/77
f 81/81/77 75/75/71 74/74/70
f 82/82/78 75/75/71 81/81/77
f 82/82/78 83/83/79 75/75/71
f 76/76/72 75/75/71 83/83/79
f 76/76/72 83/83/79 77/77/73
f 77/77/73 83/83/79 84/84/80
f 84/84/80 85/85/81 77/77/73
f 79/79/75 77/77/73 85/85/81
f 85/85/81 86/86/82 79/79/75
f 85/85/81 87/87/83 86/86/82
f 87/87/83 88/88/84 86/86/82
f 81/81/77 89/89/85 82/82/78
f 82/82/78 89/89/85 90/90/86
f 82/82/78 90/90/86 91/91/87
f 91/91/87 83/83/79 82/82/78
f 91/91/87 84/84/80 83/83/79
f 92/92/88 84/84/80 91/91/87
f 92/92/88 93/93/89 84/84/80
f 87/87/83 84/84/80 93/93/89
f 87/87/83 85/85/81 84/84/80
f 91/91/87 90/90/86 94/94/90
f 94/94/90 92/92/88 91/91/87
f 92/92/88 94/94/90 95/95/91
f 95/95/91 96/96/92 92/92/88
f 96/96/92 93/93/89 92/92/88
f 96/96/92 97/97/93 93/93/89
f 98/98/94 93/93/89 97/97/93
f 98/98/94 99/99/95 93/93/89
f 87/87/83 93/93/89 99/99/95
f 87/87/83 99/99/95 100/100/96
f 100/100/96 88/88/84 87/87/83
f 96/96/92 95/95/91 101/101/97
f 96/96/92 101/101/97 102/102/98
f 97/97/93 96/96/92 102/102/98
f 102/102/98 103/103/99 97/97/93
f 104/104/100 97/97/93 103/103/99
f 105/105/101 97/97/93 104/104/100
f 98/98/94 97/97/93 105/105/101
f 105/105/101 106/106/102 98/98/94
f 107/107/103 98/98/94 106/106/102
f 100/100/96 98/98/94 107/107/103
f 100/100/96 99/99/95 98/98/94
f 104/104/100 103/103/99 108/108/104
f 108/108/104 109/109/105 104/104/100
f 105/105/101 104/104/100 109/109/105
f 109/109/105 106/106/102 105/105/101
f 108/108/104 55/55/106 109/109/105
