# Blender v3.6.0 OBJ File: 'kiryu.blend'
# www.blender.org
o 25_tattoosm24_1_0_0
v 0.174747 0.050744 1.479797
v 0.182020 0.042739 1.467444
v 0.173998 0.070972 1.471620
v 0.186431 0.065512 1.459524
v 0.186544 0.105260 1.463016
v 0.181989 0.110251 1.474755
v 0.192183 0.136413 1.487561
v 0.202022 0.130374 1.479451
v 0.183194 0.027388 1.430604
v 0.189098 0.055275 1.425049
v 0.185315 0.098521 1.427920
v 0.167033 0.134042 1.439924
v 0.181960 0.135903 1.472229
v 0.189485 0.147206 1.497364
v 0.200909 0.142037 1.503381
v 0.239679 0.111303 1.482936
v 0.170835 0.012120 1.374030
v 0.176989 0.042932 1.371920
v 0.165068 0.091694 1.371490
v 0.126287 0.133012 1.379850
v 0.151529 0.151940 1.455419
v 0.175467 0.149384 1.484259
v 0.165255 0.036452 1.336540
v 0.145770 0.084275 1.334710
v 0.100503 0.121795 1.334520
v 0.062265 0.151038 1.388750
v 0.085036 0.166700 1.458830
v 0.135386 0.163258 1.481664
v 0.162548 0.005943 1.337250
v 0.148047 0.029586 1.292800
v 0.124046 0.073744 1.291430
v 0.083954 0.108947 1.290230
v 0.045048 0.135683 1.335340
v 0.149827 0.001546 1.293360
v 0.139780 -0.002822 1.243130
v 0.135619 0.023283 1.243130
v 0.109222 0.063822 1.241070
v 0.072463 0.094261 1.237290
v 0.031778 0.104681 1.233920
v 0.037144 0.120852 1.289610
v 0.000000 0.131684 1.335750
v 0.153190 -0.006968 1.165980
v 0.146460 0.022400 1.166960
v 0.115240 0.071112 1.166118
v 0.070991 0.103354 1.163601
v 0.029439 0.110359 1.160670
v -0.000000 0.101843 1.232690
v 0.000000 0.116668 1.289530
v 0.155386 -0.007755 1.130455
v 0.150624 0.024024 1.130037
v 0.122882 0.076842 1.126814
v 0.075913 0.114224 1.122155
v 0.029579 0.120040 1.118390
v -0.000000 0.106536 1.158770
v -0.029439 0.110359 1.160670
v -0.031778 0.104681 1.233920
v -0.037144 0.120852 1.289610
v -0.000000 0.115741 1.115930
v -0.029579 0.120040 1.118390
v -0.075726 0.113737 1.122873
v -0.070910 0.103113 1.163835
v -0.072463 0.094261 1.237290
v -0.083954 0.108947 1.290230
v -0.045048 0.135683 1.335340
v -0.062265 0.151038 1.388750
v 0.000000 0.148236 1.385210
v -0.122624 0.076081 1.127593
v -0.115158 0.070851 1.166313
v -0.109222 0.063822 1.241070
v -0.124046 0.073744 1.291430
v -0.145770 0.084275 1.334710
v -0.100503 0.121795 1.334520
v -0.146460 0.022400 1.166960
v -0.135619 0.023283 1.243130
v -0.148047 0.029586 1.292800
v -0.165255 0.036452 1.336540
v -0.176989 0.042932 1.371920
v -0.165068 0.091694 1.371490
v -0.150434 0.023371 1.130372
v -0.155142 -0.008681 1.130677
v -0.153190 -0.006968 1.165980
v -0.139780 -0.002822 1.243130
v -0.149827 0.001546 1.293360
v -0.162548 0.005943 1.337250
v -0.170835 0.012120 1.374030
v -0.189309 0.054519 1.424558
v -0.185274 0.097925 1.427449
v -0.166742 0.133529 1.439416
v -0.126287 0.133012 1.379850
v -0.183464 0.026768 1.430240
v -0.187423 0.062859 1.457901
v -0.186500 0.102789 1.461115
v -0.180912 0.133834 1.470230
v -0.173961 0.147965 1.482571
v -0.151156 0.151602 1.455011
v -0.183464 0.040158 1.466058
v -0.177175 0.065514 1.468738
v -0.182901 0.105455 1.471466
v -0.190904 0.133618 1.484914
v -0.187445 0.145321 1.495105
v -0.178802 0.045802 1.477664
v -0.201692 0.127714 1.477290
v -0.198567 0.140422 1.501206
v -0.188413 0.150494 1.522302
v -0.177132 0.154547 1.512215
v -0.162108 0.157407 1.501361
v -0.134892 0.163042 1.481301
v -0.240834 0.113167 1.484823
v -0.235398 0.121563 1.506809
v -0.227599 0.128331 1.525247
v -0.218833 0.133376 1.539155
v -0.208605 0.136326 1.551169
v -0.154662 0.156892 1.532533
v -0.208605 0.136326 1.551169
v -0.266976 0.089894 1.490582
v -0.259902 0.099643 1.523054
v -0.252953 0.103605 1.540106
v -0.242526 0.106255 1.557427
v -0.228990 0.107307 1.572829
v -0.208605 0.136326 1.551169
v -0.208605 0.136326 1.551169
v -0.185950 0.138309 1.567299
v -0.158009 0.138665 1.575582
v -0.118087 0.137306 1.576847
v -0.120707 0.159236 1.527007
v -0.085036 0.166700 1.458830
v -0.197024 0.105968 1.593469
v -0.175746 0.105251 1.599461
v -0.144513 0.104486 1.600749
v -0.102225 0.106143 1.613131
v -0.060550 0.143110 1.573370
v -0.068856 0.162086 1.518200
v -0.054388 0.121763 1.606700
v -0.021739 0.141690 1.571060
v -0.026368 0.160292 1.516260
v -0.032954 0.162615 1.449980
v -0.018941 0.125893 1.604270
v -0.000000 0.125658 1.603700
v 0.000000 0.139748 1.571290
v 0.000000 0.155263 1.516680
v 0.000000 0.157764 1.449310
v 0.032954 0.162615 1.449980
v 0.021739 0.141690 1.571060
v 0.026368 0.160292 1.516260
v 0.018941 0.125893 1.604270
v 0.054388 0.121763 1.606700
v 0.060550 0.143110 1.573370
v 0.068856 0.162086 1.518200
v 0.121144 0.159243 1.527188
v 0.156572 0.156936 1.533337
v 0.163817 0.158114 1.502589
v 0.102386 0.106025 1.613105
v 0.118613 0.137104 1.576906
v 0.145277 0.103842 1.600566
v 0.177582 0.103325 1.598733
v 0.160300 0.137670 1.575747
v 0.199300 0.103116 1.592212
v 0.189157 0.136749 1.567402
v 0.212134 0.134354 1.551088
v 0.191593 0.151006 1.523975
v 0.212134 0.134354 1.551088
v 0.179618 0.155398 1.513867
v 0.231360 0.102944 1.570457
v 0.212134 0.134354 1.551088
v 0.221988 0.131304 1.538847
v 0.229874 0.126253 1.524580
v 0.236239 0.119554 1.505615
v 0.263631 0.084785 1.485338
v 0.259496 0.094288 1.518808
v 0.212134 0.134354 1.551088
v 0.244388 0.101284 1.554387
v 0.253819 0.098322 1.536427
vt 0.125122 1.616699
vt 0.111633 1.600098
vt 0.131104 1.588135
vt 0.154907 1.598144
vt 0.198486 1.633545
vt 0.157471 1.665039
vt 0.181397 1.698975
vt 0.146729 1.764526
vt 0.145020 1.563477
vt 0.172485 1.572266
vt 0.227051 1.602295
vt 0.272217 1.638672
vt 0.226318 1.667480
vt 0.205322 1.720703
vt 0.185303 1.782227
vt 0.136597 1.883301
vt 0.166626 1.515869
vt 0.193848 1.523193
vt 0.252441 1.542969
vt 0.329590 1.574707
vt 0.300049 1.666016
vt 0.243408 1.690185
vt 0.208618 1.487305
vt 0.272217 1.507812
vt 0.351074 1.524658
vt 0.415039 1.596924
vt 0.395020 1.681152
vt 0.324219 1.702881
vt 0.183106 1.479980
vt 0.232422 1.443359
vt 0.296143 1.457031
vt 0.370117 1.471680
vt 0.439209 1.530273
vt 0.204346 1.437500
vt 0.226440 1.383789
vt 0.257813 1.391113
vt 0.322510 1.402344
vt 0.395752 1.409180
vt 0.457275 1.406738
vt 0.452148 1.476074
vt 0.499756 1.530029
vt 0.216065 1.293457
vt 0.251709 1.299805
vt 0.327148 1.309570
vt 0.404053 1.313477
vt 0.463379 1.311523
vt 0.499756 1.405273
vt 0.499756 1.475586
vt 0.204956 1.250000
vt 0.246094 1.254394
vt 0.325928 1.259277
vt 0.405518 1.258301
vt 0.466309 1.256836
vt 0.499756 1.310059
vt 0.536133 1.311523
vt 0.542481 1.406738
vt 0.547363 1.476074
vt 0.499756 1.255371
vt 0.533203 1.256836
vt 0.594238 1.258301
vt 0.595703 1.313477
vt 0.604004 1.409180
vt 0.629395 1.471680
vt 0.560547 1.530273
vt 0.584473 1.596924
vt 0.499756 1.590820
vt 0.673828 1.259277
vt 0.672363 1.309570
vt 0.677246 1.402344
vt 0.703613 1.457031
vt 0.727539 1.507812
vt 0.648438 1.524658
vt 0.748047 1.299805
vt 0.741699 1.391113
vt 0.767090 1.443359
vt 0.791016 1.487305
vt 0.805664 1.523193
vt 0.747070 1.542969
vt 0.753418 1.254394
vt 0.794922 1.250000
vt 0.783691 1.293457
vt 0.773438 1.383789
vt 0.795410 1.437500
vt 0.816406 1.479980
vt 0.833008 1.515869
vt 0.827148 1.572266
vt 0.772461 1.602295
vt 0.727539 1.638672
vt 0.669922 1.574707
vt 0.854492 1.563477
vt 0.844727 1.598144
vt 0.801270 1.633545
vt 0.773438 1.667480
vt 0.756348 1.690185
vt 0.699707 1.666016
vt 0.868652 1.588135
vt 0.874512 1.616699
vt 0.842285 1.665039
vt 0.818359 1.698975
vt 0.794434 1.720703
vt 0.888184 1.600098
vt 0.853027 1.764526
vt 0.814453 1.782227
vt 0.771484 1.794189
vt 0.755859 1.752319
vt 0.728027 1.723877
vt 0.675293 1.702881
vt 0.863281 1.883301
vt 0.833984 1.885864
vt 0.808594 1.885620
vt 0.786621 1.882019
vt 0.765625 1.878662
vt 0.765625 1.878662
vt 0.704590 1.780762
vt 0.862305 1.938354
vt 0.829102 1.941986
vt 0.794922 1.941467
vt 0.778320 1.939178
vt 0.756836 1.934570
vt 0.765625 1.878662
vt 0.765625 1.878662
vt 0.727051 1.872559
vt 0.693848 1.867920
vt 0.651856 1.862671
vt 0.658203 1.774780
vt 0.604492 1.681152
vt 0.721191 1.924194
vt 0.697754 1.919617
vt 0.659668 1.914612
vt 0.632324 1.937256
vt 0.574707 1.848999
vt 0.583496 1.768921
vt 0.569336 1.911560
vt 0.521484 1.846680
vt 0.525391 1.770019
vt 0.536621 1.669434
vt 0.520996 1.905884
vt 0.499756 1.904968
vt 0.499756 1.847290
vt 0.499756 1.771362
vt 0.499756 1.668213
vt 0.463135 1.669434
vt 0.478027 1.846680
vt 0.474121 1.770019
vt 0.478760 1.905884
vt 0.430420 1.911560
vt 0.424805 1.848999
vt 0.416260 1.768921
vt 0.341309 1.774780
vt 0.295166 1.780762
vt 0.271729 1.723877
vt 0.367188 1.937256
vt 0.347656 1.862671
vt 0.340088 1.914612
vt 0.301758 1.919617
vt 0.305664 1.867920
vt 0.278320 1.924194
vt 0.272705 1.872559
vt 0.233887 1.878662
vt 0.233887 1.878662
vt 0.228394 1.794189
vt 0.244019 1.752319
vt 0.242676 1.934570
vt 0.233887 1.878662
vt 0.213135 1.882019
vt 0.191162 1.885620
vt 0.165649 1.885864
vt 0.137207 1.938354
vt 0.170776 1.941986
vt 0.233887 1.878662
vt 0.221558 1.939178
vt 0.204712 1.941467
vn 0.6694 -0.2351 0.7047
vn 0.8952 0.1951 0.4006
vn 0.9906 -0.1214 0.0631
vn 0.9280 -0.3303 0.1724
vn 0.9772 -0.0980 -0.1884
vn 0.7034 -0.5735 0.4199
vn 0.0520 0.5720 -0.8186
vn -0.1088 0.3322 -0.9369
vn 0.9656 -0.2289 -0.1231
vn 0.9520 -0.2943 -0.0840
vn 0.9767 0.0709 -0.2024
vn 0.8006 0.4705 -0.3712
vn 0.7998 0.2537 -0.5440
vn 0.3978 0.7660 -0.5049
vn 0.4016 0.8744 -0.2724
vn 0.4560 0.8344 -0.3094
vn 0.9433 -0.2799 -0.1783
vn 0.9501 -0.2081 -0.2323
vn 0.9199 0.2138 -0.3287
vn 0.6110 0.6553 -0.4443
vn 0.5282 0.7684 -0.3613
vn 0.5471 0.7202 -0.4266
vn 0.9394 -0.2063 -0.2737
vn 0.8716 0.3417 -0.3516
vn 0.5740 0.6903 -0.4404
vn 0.2108 0.9147 -0.3447
vn 0.1958 0.9430 -0.2691
vn 0.1851 0.9389 -0.2903
vn 0.9747 -0.0913 -0.2043
vn 0.9315 -0.0909 -0.3522
vn 0.7736 0.4054 -0.4870
vn 0.5939 0.6608 -0.4589
vn 0.2229 0.9108 -0.3476
vn 0.9575 0.0552 -0.2830
vn 0.9779 0.0581 -0.2007
vn 0.9542 0.1520 -0.2578
vn 0.8135 0.5161 -0.2681
vn 0.6218 0.7100 -0.3305
vn 0.2594 0.9148 -0.3095
vn 0.2394 0.9260 -0.2919
vn -0.0871 0.9519 -0.2937
vn 0.9745 0.1548 0.1624
vn 0.9668 0.2160 0.1364
vn 0.8349 0.5382 0.1155
vn 0.5780 0.8064 0.1252
vn 0.1634 0.9840 0.0712
vn -0.0917 0.9926 0.0799
vn -0.0765 0.9648 -0.2516
vn 0.9737 0.2215 0.0540
vn 0.9811 0.1508 0.1210
vn 0.8755 0.4682 0.1198
vn 0.5832 0.7660 0.2704
vn 0.1077 0.9696 0.2199
vn -0.1396 0.9653 0.2206
vn 0.1322 0.9892 0.0627
vn 0.0917 0.9926 0.0798
vn 0.1073 0.9575 -0.2677
vn -0.1576 0.9655 0.2074
vn 0.1572 0.9655 0.2075
vn -0.1103 0.9689 0.2213
vn -0.1464 0.9533 0.2642
vn -0.2380 0.9649 0.1113
vn -0.2599 0.9145 -0.3101
vn -0.2363 0.9116 -0.3365
vn 0.0862 0.9649 -0.2480
vn 0.0246 0.9480 -0.3173
vn -0.5858 0.7658 0.2651
vn -0.5667 0.7948 0.2173
vn -0.5803 0.8052 0.1223
vn -0.6296 0.7060 -0.3244
vn -0.5939 0.6608 -0.4589
vn -0.5804 0.6980 -0.4194
vn -0.8166 0.5294 0.2299
vn -0.8347 0.5391 0.1124
vn -0.8133 0.5159 -0.2690
vn -0.8579 0.3346 -0.3900
vn -0.8901 0.3515 -0.2900
vn -0.8720 0.1964 -0.4484
vn -0.8777 0.4671 0.1072
vn -0.9831 0.1469 0.1093
vn -0.9740 0.2217 0.0475
vn -0.9746 0.1553 0.1611
vn -0.9779 0.0581 -0.2007
vn -0.9575 0.0552 -0.2830
vn -0.9845 -0.0812 -0.1554
vn -0.9823 -0.1871 0.0037
vn -0.9873 0.0727 -0.1416
vn -0.8483 0.4592 -0.2636
vn -0.6062 0.6525 -0.4546
vn -0.9790 -0.2014 0.0311
vn -0.7539 -0.2361 0.6131
vn -0.9451 -0.1764 0.2751
vn -0.8414 0.2528 -0.4776
vn -0.5533 0.7214 -0.4165
vn -0.4828 0.7708 -0.4157
vn -0.8842 0.0607 0.4632
vn -0.7539 -0.1686 0.6350
vn -0.8132 -0.4850 0.3217
vn -0.2281 0.4479 -0.8645
vn -0.5237 0.7001 -0.4854
vn -0.9387 0.2034 0.2782
vn 0.0818 0.2878 -0.9542
vn -0.4308 0.8299 -0.3545
vn -0.2899 0.9477 -0.1334
vn -0.4207 0.9008 -0.1074
vn -0.2971 0.9278 -0.2257
vn -0.3112 0.9360 -0.1646
vn -0.3876 0.8628 -0.3246
vn -0.4473 0.8688 -0.2126
vn -0.4519 0.8846 -0.1153
vn -0.4311 0.9017 -0.0338
vn -0.4602 0.8661 0.1951
vn -0.2725 0.8994 0.3419
vn -0.1898 0.9457 0.2638
vn -0.6868 0.7236 -0.0684
vn -0.6859 0.7265 -0.0411
vn -0.6559 0.7448 0.1231
vn -0.5806 0.7650 0.2787
vn -0.5253 0.7413 0.4177
vn -0.4541 0.8707 0.1891
vn -0.3469 0.8938 0.2843
vn -0.2349 0.9095 0.3429
vn -0.0403 0.9031 0.4275
vn 0.0093 0.9237 0.3831
vn -0.0138 0.9174 0.3978
vn -0.0354 0.9954 0.0887
vn -0.3949 0.6760 0.6222
vn -0.1058 0.6398 0.7613
vn 0.0560 0.5723 0.8181
vn -0.2369 0.6871 0.6869
vn -0.0478 0.7574 0.6512
vn -0.0028 0.9456 0.3254
vn -0.3720 0.7624 0.5295
vn -0.1956 0.8092 0.5540
vn 0.0625 0.8456 0.5301
vn 0.0535 0.9469 0.3169
vn 0.0436 0.9986 0.0307
vn -0.0750 0.8981 0.4334
vn 0.0242 0.9036 0.4277
vn 0.0774 0.9143 0.3975
vn 0.1763 0.9469 0.2690
vn 0.1463 0.9886 0.0367
vn -0.1412 0.9792 -0.1456
vn -0.0774 0.9143 0.3975
vn -0.0811 0.9459 0.3142
vn -0.0242 0.9036 0.4277
vn 0.0695 0.8986 0.4331
vn -0.0706 0.8453 0.5296
vn -0.0606 0.9472 0.3149
vn 0.0173 0.9960 0.0877
vn 0.0472 0.9885 0.1438
vn 0.1552 0.9866 0.0506
vn 0.1780 0.8042 0.5671
vn 0.0485 0.7433 0.6672
vn 0.3559 0.7065 0.6117
vn 0.1123 0.5279 0.8418
vn 0.0840 0.5904 0.8027
vn 0.3134 0.5762 0.7548
vn 0.3765 0.6305 0.6787
vn 0.3168 0.8945 0.3154
vn 0.2418 0.8328 0.4980
vn 0.4073 0.8742 0.2644
vn 0.2328 0.9660 0.1129
vn 0.4220 0.6064 0.6739
vn 0.3781 0.8133 0.4423
vn 0.5670 0.8214 -0.0624
vn 0.5095 0.8576 -0.0705
vn 0.5185 0.8397 -0.1614
vn 0.7543 0.6503 -0.0896
vn 0.7529 0.6554 -0.0599
vn 0.5130 0.8064 0.2942
vn 0.6080 0.5617 0.5610
vn 0.6327 0.6748 0.3799
vn 0.6932 0.6906 0.2062
s 1
f 3/1/1 1/2/2 2/3/3
f 3/1/1 2/3/3 4/4/4
f 3/1/1 4/4/4 5/5/5
f 3/1/1 5/5/5 6/6/6
f 5/5/5 7/7/7 6/6/6
f 7/7/7 8/8/8 6/6/6
f 9/9/9 4/4/4 2/3/3
f 9/9/9 10/10/10 4/4/4
f 11/11/11 4/4/4 10/10/10
f 11/11/11 5/5/5 4/4/4
f 5/5/5 11/11/11 12/12/12
f 5/5/5 12/12/12 13/13/13
f 7/7/7 5/5/5 13/13/13
f 13/13/13 14/14/14 7/7/7
f 8/8/8 7/7/7 14/14/14
f 8/8/8 14/14/14 15/15/15
f 16/16/16 8/8/8 15/15/15
f 10/10/10 9/9/9 17/17/17
f 10/10/10 17/17/17 18/18/18
f 10/10/10 18/18/18 19/19/19
f 10/10/10 19/19/19 11/11/11
f 19/19/19 12/12/12 11/11/11
f 19/19/19 20/20/20 12/12/12
f 21/21/21 12/12/12 20/20/20
f 12/12/12 21/21/21 22/22/22
f 12/12/12 22/22/22 13/13/13
f 13/13/13 22/22/22 14/14/14
f 17/17/17 23/23/23 18/18/18
f 24/24/24 18/18/18 23/23/23
f 18/18/18 24/24/24 19/19/19
f 19/19/19 24/24/24 25/25/25
f 19/19/19 25/25/25 20/20/20
f 26/26/26 20/20/20 25/25/25
f 21/21/21 20/20/20 26/26/26
f 27/27/27 21/21/21 26/26/26
f 21/21/21 27/27/27 28/28/28
f 28/28/28 22/22/22 21/21/21
f 23/23/23 17/17/17 29/29/29
f 30/30/30 23/23/23 29/29/29
f 30/30/30 24/24/24 23/23/23
f 30/30/30 31/31/31 24/24/24
f 32/32/32 24/24/24 31/31/31
f 32/32/32 25/25/25 24/24/24
f 32/32/32 33/33/33 25/25/25
f 26/26/26 25/25/25 33/33/33
f 30/30/30 29/29/29 34/34/34
f 30/30/30 34/34/34 35/35/35
f 30/30/30 35/35/35 36/36/36
f 30/30/30 36/36/36 37/37/37
f 30/30/30 37/37/37 31/31/31
f 37/37/37 32/32/32 31/31/31
f 37/37/37 38/38/38 32/32/32
f 39/39/39 32/32/32 38/38/38
f 32/32/32 39/39/39 40/40/40
f 32/32/32 40/40/40 33/33/33
f 40/40/40 41/41/41 33/33/33
f 26/26/26 33/33/33 41/41/41
f 42/42/42 36/36/36 35/35/35
f 42/42/42 43/43/43 36/36/36
f 44/44/44 36/36/36 43/43/43
f 44/44/44 37/37/37 36/36/36
f 45/45/45 37/37/37 44/44/44
f 37/37/37 45/45/45 38/38/38
f 45/45/45 39/39/39 38/38/38
f 45/45/45 46/46/46 39/39/39
f 46/46/46 47/47/47 39/39/39
f 39/39/39 47/47/47 48/48/48
f 39/39/39 48/48/48 40/40/40
f 40/40/40 48/48/48 41/41/41
f 49/49/49 43/43/43 42/42/42
f 49/49/49 50/50/50 43/43/43
f 51/51/51 43/43/43 50/50/50
f 51/51/51 44/44/44 43/43/43
f 51/51/51 45/45/45 44/44/44
f 51/51/51 52/52/52 45/45/45
f 52/52/52 46/46/46 45/45/45
f 52/52/52 53/53/53 46/46/46
f 53/53/53 54/54/54 46/46/46
f 46/46/46 54/54/54 47/47/47
f 55/55/55 47/47/47 54/54/54
f 55/55/55 56/56/56 47/47/47
f 56/56/56 48/48/48 47/47/47
f 56/56/56 57/57/57 48/48/48
f 57/57/57 41/41/41 48/48/48
f 53/53/53 58/58/58 54/54/54
f 59/59/59 54/54/54 58/58/58
f 59/59/59 55/55/55 54/54/54
f 60/60/60 55/55/55 59/59/59
f 60/60/60 61/61/61 55/55/55
f 61/61/61 56/56/56 55/55/55
f 61/61/61 62/62/62 56/56/56
f 56/56/56 62/62/62 63/63/63
f 63/63/63 57/57/57 56/56/56
f 63/63/63 64/64/64 57/57/57
f 57/57/57 64/64/64 41/41/41
f 65/65/65 41/41/41 64/64/64
f 65/65/65 66/66/66 41/41/41
f 26/26/26 41/41/41 66/66/66
f 67/67/67 61/61/61 60/60/60
f 67/67/67 68/68/68 61/61/61
f 61/61/61 68/68/68 69/69/69
f 69/69/69 62/62/62 61/61/61
f 69/69/69 63/63/63 62/62/62
f 69/69/69 70/70/70 63/63/63
f 63/63/63 70/70/70 71/71/71
f 63/63/63 71/71/71 72/72/72
f 63/63/63 72/72/72 64/64/64
f 65/65/65 64/64/64 72/72/72
f 67/67/67 73/73/73 68/68/68
f 68/68/68 73/73/73 74/74/74
f 68/68/68 74/74/74 69/69/69
f 75/75/75 69/69/69 74/74/74
f 75/75/75 70/70/70 69/69/69
f 75/75/75 71/71/71 70/70/70
f 75/75/75 76/76/76 71/71/71
f 71/71/71 76/76/76 77/77/77
f 77/77/77 78/78/78 71/71/71
f 78/78/78 72/72/72 71/71/71
f 67/67/67 79/79/79 73/73/73
f 80/80/80 73/73/73 79/79/79
f 80/80/80 81/81/81 73/73/73
f 81/81/81 74/74/74 73/73/73
f 81/81/81 82/82/82 74/74/74
f 75/75/75 74/74/74 82/82/82
f 75/75/75 82/82/82 83/83/83
f 75/75/75 83/83/83 84/84/84
f 75/75/75 84/84/84 76/76/76
f 76/76/76 84/84/84 85/85/85
f 85/85/85 77/77/77 76/76/76
f 86/86/86 77/77/77 85/85/85
f 86/86/86 78/78/78 77/77/77
f 86/86/86 87/87/87 78/78/78
f 78/78/78 87/87/87 88/88/88
f 78/78/78 88/88/88 89/89/89
f 78/78/78 89/89/89 72/72/72
f 65/65/65 72/72/72 89/89/89
f 86/86/86 85/85/85 90/90/90
f 90/90/90 91/91/91 86/86/86
f 87/87/87 86/86/86 91/91/91
f 87/87/87 91/91/91 92/92/92
f 92/92/92 88/88/88 87/87/87
f 92/92/92 93/93/93 88/88/88
f 88/88/88 93/93/93 94/94/94
f 88/88/88 94/94/94 95/95/95
f 95/95/95 89/89/89 88/88/88
f 95/95/95 65/65/65 89/89/89
f 90/90/90 96/96/96 91/91/91
f 97/97/97 91/91/91 96/96/96
f 97/97/97 92/92/92 91/91/91
f 97/97/97 98/98/98 92/92/92
f 92/92/92 98/98/98 99/99/99
f 99/99/99 93/93/93 92/92/92
f 93/93/93 99/99/99 100/100/100
f 93/93/93 100/100/100 94/94/94
f 97/97/97 96/96/96 101/101/101
f 99/99/99 98/98/98 102/102/102
f 102/102/102 100/100/100 99/99/99
f 102/102/102 103/103/103 100/100/100
f 100/100/100 103/103/103 104/104/104
f 100/100/100 104/104/104 105/105/105
f 94/94/94 100/100/100 105/105/105
f 105/105/105 106/106/106 94/94/94
f 107/107/107 94/94/94 106/106/106
f 107/107/107 95/95/95 94/94/94
f 108/108/108 103/103/103 102/102/102
f 103/103/103 108/108/108 109/109/109
f 103/103/103 109/109/109 110/110/110
f 103/103/103 110/110/110 111/111/111
f 111/111/111 104/104/104 103/103/103
f 111/111/111 112/112/112 104/104/104
f 114/113/113 113/114/114 104/104/104
f 105/105/105 104/104/104 113/114/114
f 106/106/106 105/105/105 113/114/114
f 113/114/114 107/107/107 106/106/106
f 115/115/115 109/109/109 108/108/108
f 115/115/115 116/116/116 109/109/109
f 116/116/116 110/110/110 109/109/109
f 116/116/116 117/117/117 110/110/110
f 110/110/110 117/117/117 118/118/118
f 118/118/118 111/111/111 110/110/110
f 111/111/111 118/118/118 119/119/119
f 111/111/111 119/119/119 120/120/120
f 113/114/114 121/121/121 122/122/122
f 123/123/123 113/114/114 122/122/122
f 123/123/123 124/124/124 113/114/114
f 113/114/114 124/124/124 125/125/125
f 113/114/114 125/125/125 107/107/107
f 125/125/125 126/126/126 107/107/107
f 95/95/95 107/107/107 126/126/126
f 126/126/126 65/65/65 95/95/95
f 123/123/123 122/122/122 127/127/127
f 127/127/127 128/128/128 123/123/123
f 124/124/124 123/123/123 128/128/128
f 124/124/124 128/128/128 129/129/129
f 130/130/130 124/124/124 129/129/129
f 131/131/131 124/124/124 130/130/130
f 131/131/131 125/125/125 124/124/124
f 131/131/131 132/132/132 125/125/125
f 125/125/125 132/132/132 126/126/126
f 122/122/122 119/119/133 127/127/127
f 122/122/122 121/121/121 119/119/133
f 131/131/131 130/130/130 133/133/134
f 133/133/134 134/134/135 131/131/131
f 131/131/131 134/134/135 135/135/136
f 131/131/131 135/135/136 132/132/132
f 132/132/132 135/135/136 136/136/137
f 132/132/132 136/136/137 126/126/126
f 65/65/65 126/126/126 136/136/137
f 66/66/66 65/65/65 136/136/137
f 133/133/134 137/137/138 134/134/135
f 138/138/139 134/134/135 137/137/138
f 138/138/139 139/139/140 134/134/135
f 135/135/136 134/134/135 139/139/140
f 139/139/140 140/140/141 135/135/136
f 136/136/137 135/135/136 140/140/141
f 140/140/141 141/141/142 136/136/137
f 66/66/66 136/136/137 141/141/142
f 66/66/66 141/141/142 142/142/143
f 66/66/66 142/142/143 26/26/26
f 26/26/26 142/142/143 27/27/27
f 138/138/139 143/143/144 139/139/140
f 144/144/145 139/139/140 143/143/144
f 139/139/140 144/144/145 140/140/141
f 142/142/143 140/140/141 144/144/145
f 140/140/141 142/142/143 141/141/142
f 138/138/139 145/145/146 143/143/144
f 146/146/147 143/143/144 145/145/146
f 146/146/147 147/147/148 143/143/144
f 147/147/148 144/144/145 143/143/144
f 147/147/148 148/148/149 144/144/145
f 148/148/149 142/142/143 144/144/145
f 148/148/149 27/27/27 142/142/143
f 149/149/150 27/27/27 148/148/149
f 149/149/150 28/28/28 27/27/27
f 150/150/151 28/28/28 149/149/150
f 150/150/151 151/151/152 28/28/28
f 28/28/28 151/151/152 22/22/22
f 147/147/148 146/146/147 152/152/153
f 147/147/148 152/152/153 153/153/154
f 147/147/148 153/153/154 149/149/150
f 147/147/148 149/149/150 148/148/149
f 152/152/153 154/154/155 153/153/154
f 153/153/154 154/154/155 155/155/156
f 153/153/154 155/155/156 156/156/157
f 156/156/157 150/150/151 153/153/154
f 150/150/151 149/149/150 153/153/154
f 157/157/158 156/156/157 155/155/156
f 156/156/157 157/157/158 158/158/159
f 156/156/157 158/158/159 150/150/151
f 150/150/151 158/158/159 159/159/160
f 161/160/161 160/161/162 150/150/151
f 162/162/163 150/150/151 160/161/162
f 151/151/152 150/150/151 162/162/163
f 162/162/163 22/22/22 151/151/152
f 158/158/159 157/157/158 163/163/164
f 158/158/159 163/163/164 164/164/165
f 22/22/22 162/162/163 14/14/14
f 14/14/14 162/162/163 160/161/162
f 14/14/14 160/161/162 15/15/15
f 165/165/166 15/15/15 160/161/162
f 15/15/15 165/165/166 166/166/167
f 15/15/15 166/166/167 167/167/168
f 15/15/15 167/167/168 16/16/16
f 168/168/169 16/16/16 167/167/168
f 168/168/169 167/167/168 169/169/170
f 165/165/166 160/161/162 170/170/171
f 165/165/166 170/170/171 163/163/172
f 165/165/166 163/163/172 171/171/173
f 171/171/173 166/166/167 165/165/166
f 166/166/167 171/171/173 172/172/174
f 169/169/170 166/166/167 172/172/174
f 169/169/170 167/167/168 166/166/167
