# Blender 3.6.5
# www.blender.org
mtllib stage.mtl
o Cube
v 3.997716 1.000000 1.099659
v 3.997716 1.000000 0.900341
v 3.999314 -1.000000 1.103741
v 3.999314 -1.000000 0.897791
v -3.997716 1.000000 1.074799
v -3.997716 1.000000 0.900463
v -3.999315 -1.000000 1.103741
v -3.999315 -1.000000 0.919465
vn -0.0000 0.0020 1.0000
vn -0.0000 -1.0000 -0.0000
vn -1.0000 0.0008 -0.0000
vn -0.0027 -0.0095 -1.0000
vn 1.0000 0.0008 -0.0000
vn -0.0000 1.0000 -0.0000
vn -0.0031 0.0145 0.9999
vn -0.0000 0.0013 -1.0000
vt 0.625000 0.500000
vt 0.875000 0.750000
vt 0.625000 0.750000
vt 0.375000 1.000000
vt 0.375000 0.750000
vt 0.375000 0.000000
vt 0.625000 0.250000
vt 0.375000 0.250000
vt 0.125000 0.500000
vt 0.125000 0.750000
vt 0.375000 0.500000
vt 0.875000 0.500000
vt 0.625000 1.000000
vt 0.625000 0.000000
s 0
usemtl Material
f 1/1/1 7/2/1 3/3/1
f 3/3/2 8/4/2 4/5/2
f 8/6/3 5/7/3 6/8/3
f 6/9/4 4/5/4 8/10/4
f 1/1/5 4/5/5 2/11/5
f 5/7/6 2/11/6 6/8/6
f 1/1/7 5/12/7 7/2/7
f 3/3/2 7/13/2 8/4/2
f 8/6/3 7/14/3 5/7/3
f 6/9/8 2/11/8 4/5/8
f 1/1/5 3/3/5 4/5/5
f 5/7/6 1/1/6 2/11/6
